<?xml version="1.0" standalone="no"?>
<!DOCTYPE svg PUBLIC "-//W3C//DTD SVG 20010904//EN"
 "http://www.w3.org/TR/2001/REC-SVG-20010904/DTD/svg10.dtd">
<svg version="1.0" xmlns="http://www.w3.org/2000/svg"
 width="700.000000pt" height="700.000000pt" viewBox="0 0 700.000000 700.000000"
 preserveAspectRatio="xMidYMid meet">
<metadata>
Created by potrace 1.11, written by Peter Selinger 2001-2013
</metadata>
<g transform="translate(0.000000,700.000000) scale(0.100000,-0.100000)"
fill="#000000" stroke="none">
<path d="M3069 3970 c0 -300 0 -611 1 -692 0 -82 -3 -149 -7 -149 -4 -1 -24
-3 -43 -4 -32 -2 -95 -7 -260 -20 -30 -2 -91 -7 -135 -10 -85 -6 -125 -10
-245 -25 -41 -6 -100 -12 -130 -16 -53 -5 -213 -29 -256 -38 -12 -2 -39 -7
-60 -11 -122 -19 -220 -38 -389 -75 -77 -17 -151 -33 -165 -36 -80 -15 -428
-114 -565 -159 -238 -80 -572 -209 -593 -229 -21 -22 28 -12 170 32 227 72
606 169 883 228 17 4 183 34 265 49 101 18 274 45 319 50 30 4 61 8 70 10 9 1
45 6 81 10 36 4 72 8 80 10 8 2 47 6 85 10 39 4 81 8 95 10 106 15 396 35 725
52 195 10 817 9 1015 0 263 -14 457 -26 505 -32 41 -5 125 -13 210 -20 39 -3
81 -8 95 -10 14 -3 52 -7 85 -10 33 -4 71 -8 85 -10 14 -2 52 -7 85 -11 33 -3
69 -8 80 -10 11 -2 40 -6 65 -9 25 -4 68 -10 95 -15 28 -5 66 -12 85 -15 124
-20 327 -59 395 -76 44 -11 91 -22 105 -24 14 -3 66 -14 115 -25 125 -28 124
-28 145 -35 10 -3 27 -8 37 -10 111 -26 240 -63 438 -126 124 -40 145 -45 145
-31 0 8 -4 10 -190 87 -322 135 -866 295 -1255 371 -11 2 -31 6 -45 9 -134 28
-505 86 -635 100 -27 3 -66 7 -85 10 -93 13 -141 18 -320 30 -36 2 -105 7
-155 10 -97 6 -175 14 -215 20 -14 2 -88 11 -165 20 -77 9 -153 18 -170 20
-54 8 -189 25 -245 31 -30 4 -57 8 -59 10 -5 5 -4 1204 1 1209 4 5 46 12 118
20 30 3 66 8 80 10 14 2 69 9 124 15 54 7 106 13 115 15 9 1 50 6 92 10 42 4
81 10 87 14 5 3 -169 6 -389 6 l-399 0 -1 -545z"/>
<path d="M3317 3823 c-29 -33 -26 -77 8 -99 41 -27 95 4 95 55 0 53 -68 82
-103 44z"/>
</g>
</svg>
