<?xml version="1.0" encoding="utf-8"?>
<!-- Generator: Adobe Illustrator 21.0.0, SVG Export Plug-In . SVG Version: 6.00 Build 0)  -->
<svg version="1.1" id="Réteg_1" xmlns="http://www.w3.org/2000/svg" xmlns:xlink="http://www.w3.org/1999/xlink" x="0px" y="0px"
	 viewBox="0 0 128 128" style="enable-background:new 0 0 128 128;" xml:space="preserve">
<style type="text/css">
	.st0{fill:#FFFFFF;}
</style>
<path class="st0" d="M78.2,72.8c3-4.1,4.8-9,4.8-14.5c0-13.6-11-24.6-24.6-24.6s-24.6,11-24.6,24.6s11,24.6,24.6,24.6
	c5.4,0,10.4-1.8,14.5-4.8L89,94.3l5.4-5.4L78.2,72.8L78.2,72.8z M58.3,75.4c-9.4,0-17.1-7.6-17.1-17.1s7.6-17.1,17.1-17.1
	s17.1,7.6,17.1,17.1S67.7,75.4,58.3,75.4L58.3,75.4z"/>
<g>
	<path class="st0" d="M123,5v118H5V5H123 M128,0H0v128h128V0L128,0z"/>
</g>
</svg>
