<?xml version="1.0" encoding="utf-8"?>
<!-- Generator: Adobe Illustrator 21.0.0, SVG Export Plug-In . SVG Version: 6.00 Build 0)  -->
<svg version="1.1" id="Réteg_1" xmlns="http://www.w3.org/2000/svg" xmlns:xlink="http://www.w3.org/1999/xlink" x="0px" y="0px"
	 viewBox="0 0 128 128" style="enable-background:new 0 0 128 128;" xml:space="preserve">
<style type="text/css">
	.st0{fill:#FFFFFF;}
</style>
<g>
	<path class="st0" d="M127.7,99.2c-0.4-1.1-2.7-2.7-6.9-4.8c-1.1-0.7-2.8-1.6-4.9-2.7c-2.1-1.2-4-2.2-5.8-3.2
		c-1.7-1-3.3-1.9-4.9-2.8c-0.2-0.2-1-0.7-2.3-1.6c-1.3-0.9-2.3-1.5-3.2-2c-0.9-0.4-1.7-0.6-2.6-0.6c-1.2,0-2.7,0.9-4.5,2.6
		c-1.8,1.7-3.5,3.6-5,5.6c-1.5,2-3.1,3.9-4.8,5.6c-1.7,1.7-3.1,2.6-4.2,2.6c-0.5,0-1.2-0.2-2-0.5c-0.8-0.3-1.4-0.6-1.9-0.8
		c-0.4-0.2-1.1-0.6-2.2-1.3c-1-0.6-1.6-1-1.7-1c-8.3-4.6-15.4-9.9-21.4-15.8c-5.9-5.9-11.2-13.1-15.8-21.4c-0.1-0.1-0.4-0.7-1-1.7
		c-0.6-1-1.1-1.8-1.3-2.2c-0.2-0.4-0.5-1-0.8-1.9s-0.5-1.5-0.5-2c0-1.1,0.9-2.5,2.6-4.2c1.7-1.7,3.6-3.3,5.6-4.8
		c2-1.5,3.9-3.2,5.6-5c1.7-1.8,2.6-3.3,2.6-4.5c0-0.8-0.2-1.7-0.6-2.6c-0.4-0.9-1.1-2-2-3.2c-0.9-1.3-1.4-2-1.6-2.3
		c-0.9-1.5-1.8-3.1-2.8-4.9c-1-1.7-2-3.7-3.2-5.8c-1.2-2.1-2.1-3.8-2.7-4.9c-2.1-4.2-3.7-6.5-4.8-6.9C28.4,0.1,27.8,0,26.9,0
		c-1.6,0-3.8,0.3-6.4,0.9c-2.6,0.6-4.7,1.2-6.2,1.9c-3,1.3-6.2,5-9.6,11.1C1.6,19.6,0,25.2,0,30.8c0,1.6,0.1,3.2,0.3,4.8
		c0.2,1.5,0.6,3.3,1.1,5.2c0.5,1.9,1,3.4,1.3,4.3c0.3,0.9,1,2.6,1.9,5c0.9,2.4,1.5,3.9,1.6,4.5c2.1,5.9,4.6,11.2,7.5,15.9
		c4.8,7.8,11.3,15.8,19.6,24c8.3,8.3,16.3,14.8,24,19.6c4.7,2.9,10,5.4,15.9,7.5c0.5,0.2,2,0.7,4.5,1.6c2.4,0.9,4.1,1.5,5,1.9
		c0.9,0.3,2.4,0.8,4.3,1.3c1.9,0.5,3.7,0.9,5.2,1.1c1.5,0.2,3.1,0.3,4.8,0.3c5.6,0,11.2-1.5,16.9-4.6c6.1-3.4,9.8-6.6,11.1-9.6
		c0.7-1.5,1.3-3.6,1.9-6.2c0.6-2.6,0.9-4.8,0.9-6.4C128,100.2,127.9,99.6,127.7,99.2z"/>
</g>
</svg>
