<?xml version="1.0" encoding="utf-8"?>
<!-- Generator: Adobe Illustrator 21.0.0, SVG Export Plug-In . SVG Version: 6.00 Build 0)  -->
<svg version="1.1" id="Capa_1" xmlns="http://www.w3.org/2000/svg" xmlns:xlink="http://www.w3.org/1999/xlink" x="0px" y="0px"
	 viewBox="0 0 453 453" style="enable-background:new 0 0 453 453;" xml:space="preserve">
<style type="text/css">
	.st0{fill:#FFFFFF;}
</style>
<g>
	<g>
		<path class="st0" d="M441.8,212.4c-0.9-1.1-22.6-28.3-59.4-55.3c-49.4-36.3-103.4-55.5-156-55.5c-52.6,0-106.5,19.2-156,55.5
			c-36.9,27.1-58.5,54.2-59.4,55.3L0,226.5l11.2,14.1c0.9,1.1,22.5,28.2,59.4,55.3c49.4,36.3,103.4,55.5,156,55.5
			c52.6,0,106.5-19.2,156-55.5c36.8-27,58.5-54.2,59.4-55.3l11.2-14.1L441.8,212.4z M429.9,231.2c-0.9,1.1-21.3,26.7-56.4,52.5
			c-46.8,34.4-97.6,52.6-147,52.6c-49.3,0-100.1-18.2-147-52.6c-35.3-25.9-55.6-51.4-56.4-52.5l-3.7-4.7l3.7-4.7
			c0.8-1.1,21.2-26.6,56.4-52.5c46.8-34.4,97.6-52.6,147-52.6c49.3,0,100.1,18.2,147,52.6c35.2,25.8,55.6,51.4,56.4,52.5l3.7,4.7
			L429.9,231.2z"/>
		<path class="st0" d="M226.5,142.2c-46.5,0-84.3,37.8-84.3,84.3s37.8,84.3,84.3,84.3s84.3-37.8,84.3-84.3S273,142.2,226.5,142.2z
			 M226.5,295.6c-38.1,0-69.1-31-69.1-69.1s31-69.1,69.1-69.1s69.1,31,69.1,69.1S264.6,295.6,226.5,295.6z"/>
		<path class="st0" d="M226.5,174.1v15.2c20.5,0,37.2,16.7,37.2,37.2h15.2C278.9,197.6,255.4,174.1,226.5,174.1z"/>
	</g>
</g>
</svg>
