<?xml version="1.0" encoding="utf-8"?>
<!-- Generator: Adobe Illustrator 21.0.0, SVG Export Plug-In . SVG Version: 6.00 Build 0)  -->
<svg version="1.1" id="Réteg_1" xmlns="http://www.w3.org/2000/svg" xmlns:xlink="http://www.w3.org/1999/xlink" x="0px" y="0px"
	 viewBox="0 0 128 128" style="enable-background:new 0 0 128 128;" xml:space="preserve">
<style type="text/css">
	.st0{fill:#FFFFFF;}
</style>
<g>
	<path class="st0" d="M64,0C38,0,16.9,21.1,16.9,47.1c0,6.8,1.4,13.2,4.1,19.2c11.8,25.8,34.4,53,41,60.7c0.5,0.6,1.2,0.9,2,0.9
		s1.5-0.3,2-0.9c6.6-7.7,29.2-34.9,41-60.7c2.7-6,4.1-12.5,4.1-19.2C111.1,21.1,90,0,64,0z M64,71.6c-13.5,0-24.5-11-24.5-24.5
		c0-13.5,11-24.5,24.5-24.5s24.5,11,24.5,24.5C88.5,60.6,77.5,71.6,64,71.6z"/>
</g>
</svg>
