<?xml version="1.0" encoding="utf-8"?>
<!-- Generator: Adobe Illustrator 21.0.0, SVG Export Plug-In . SVG Version: 6.00 Build 0)  -->
<svg version="1.1" id="Réteg_1" xmlns="http://www.w3.org/2000/svg" xmlns:xlink="http://www.w3.org/1999/xlink" x="0px" y="0px"
	 viewBox="0 0 128 128" style="enable-background:new 0 0 128 128;" xml:space="preserve">
<style type="text/css">
	.st0{fill:#696969;}
</style>
<g>
	<path class="st0" d="M127.6,37.6c-0.3-6.8-1.4-11.5-3-15.5c-1.6-4.3-4.1-8.1-7.4-11.3c-3.2-3.3-7.1-5.8-11.3-7.4
		c-4.1-1.6-8.7-2.7-15.5-3C83.6,0.1,81.4,0,64,0S44.4,0.1,37.6,0.4c-6.8,0.3-11.5,1.4-15.5,3c-4.3,1.6-8.1,4.1-11.3,7.4
		C7.5,13.9,5,17.8,3.4,22.1c-1.6,4.1-2.7,8.7-3,15.5C0.1,44.4,0,46.6,0,64c0,17.4,0.1,19.6,0.4,26.4c0.3,6.8,1.4,11.5,3,15.5
		c1.6,4.3,4.1,8.1,7.4,11.3c3.2,3.3,7.1,5.8,11.3,7.4c4.1,1.6,8.7,2.7,15.5,3c6.8,0.3,9,0.4,26.4,0.4s19.6-0.1,26.4-0.4
		c6.8-0.3,11.5-1.4,15.5-3c8.6-3.3,15.4-10.1,18.7-18.7c1.6-4.1,2.7-8.7,3-15.5c0.3-6.8,0.4-9,0.4-26.4
		C128,46.6,127.9,44.4,127.6,37.6z M116.1,89.9c-0.3,6.2-1.3,9.6-2.2,11.9c-2.2,5.6-6.6,10-12.1,12.1c-2.3,0.9-5.6,1.9-11.9,2.2
		c-6.7,0.3-8.8,0.4-25.9,0.4c-17.1,0-19.1-0.1-25.9-0.4c-6.2-0.3-9.6-1.3-11.9-2.2c-2.8-1-5.3-2.7-7.4-4.8c-2.1-2.1-3.8-4.6-4.8-7.4
		c-0.9-2.3-1.9-5.6-2.2-11.9c-0.3-6.7-0.4-8.8-0.4-25.9c0-17.1,0.1-19.1,0.4-25.9c0.3-6.2,1.3-9.6,2.2-11.9c1-2.8,2.7-5.3,4.8-7.4
		c2.1-2.1,4.6-3.8,7.4-4.8c2.3-0.9,5.6-1.9,11.9-2.2c6.7-0.3,8.8-0.4,25.9-0.4s19.1,0.1,25.9,0.4c6.2,0.3,9.6,1.3,11.9,2.2
		c2.8,1,5.3,2.7,7.4,4.8c2.1,2.1,3.8,4.6,4.8,7.4c0.9,2.3,1.9,5.6,2.2,11.9c0.3,6.7,0.4,8.8,0.4,25.9
		C116.5,81.1,116.4,83.1,116.1,89.9z"/>
	<path class="st0" d="M64,31.1c-18.2,0-32.9,14.7-32.9,32.9S45.8,96.9,64,96.9c18.2,0,32.9-14.7,32.9-32.9S82.2,31.1,64,31.1z
		 M64,85.3c-11.8,0-21.3-9.6-21.3-21.3c0-11.8,9.6-21.3,21.3-21.3c11.8,0,21.3,9.6,21.3,21.3C85.3,75.8,75.8,85.3,64,85.3z"/>
	<circle class="st0" cx="98.2" cy="29.8" r="7.7"/>
</g>
</svg>
