<?xml version="1.0" encoding="utf-8"?>
<!-- Generator: Adobe Illustrator 21.0.0, SVG Export Plug-In . SVG Version: 6.00 Build 0)  -->
<svg version="1.1" id="Réteg_1" xmlns="http://www.w3.org/2000/svg" xmlns:xlink="http://www.w3.org/1999/xlink" x="0px" y="0px"
	 viewBox="0 0 128 128" style="enable-background:new 0 0 128 128;" xml:space="preserve">
<style type="text/css">
	.st0{fill:#FFFFFF;}
</style>
<g>
	<g>
		<path class="st0" d="M12.3,44.7c1.6,1.1,6.5,4.5,14.6,10.2c8.1,5.6,14.4,10,18.7,13c0.5,0.3,1.5,1.1,3,2.2c1.5,1.1,2.8,2,3.9,2.7
			c1,0.7,2.3,1.5,3.7,2.3c1.5,0.9,2.8,1.5,4.1,1.9c1.3,0.4,2.5,0.6,3.6,0.6H64h0.1c1.1,0,2.3-0.2,3.6-0.6c1.3-0.4,2.7-1.1,4.1-1.9
			c1.5-0.9,2.7-1.6,3.7-2.3c1-0.7,2.3-1.6,3.9-2.7c1.5-1.1,2.6-1.8,3-2.2c4.4-3,15.5-10.8,33.4-23.2c3.5-2.4,6.4-5.4,8.7-8.8
			c2.3-3.4,3.5-7,3.5-10.8c0-3.1-1.1-5.8-3.4-8.1c-2.3-2.2-4.9-3.4-8-3.4H11.4c-3.7,0-6.5,1.2-8.5,3.7c-2,2.5-3,5.6-3,9.3
			c0,3,1.3,6.3,3.9,9.8C6.5,40,9.3,42.7,12.3,44.7z"/>
		<path class="st0" d="M120.9,52.4C105.2,62.9,93.4,71.1,85.3,77c-2.7,2-4.9,3.6-6.6,4.7c-1.7,1.1-3.9,2.3-6.7,3.4
			c-2.8,1.2-5.4,1.8-7.9,1.8H64h-0.1c-2.4,0-5-0.6-7.9-1.8c-2.8-1.2-5.1-2.3-6.7-3.4c-1.7-1.1-3.9-2.7-6.6-4.7
			c-6.4-4.7-18.3-12.9-35.5-24.6c-2.7-1.8-5.1-3.9-7.2-6.2v56.7c0,3.1,1.1,5.8,3.4,8.1c2.2,2.2,4.9,3.4,8.1,3.4h105.1
			c3.1,0,5.8-1.1,8.1-3.4c2.2-2.2,3.4-4.9,3.4-8.1V46.1C126,48.4,123.6,50.5,120.9,52.4z"/>
	</g>
</g>
</svg>
