<?xml version="1.0" encoding="utf-8"?>
<!-- Generator: Adobe Illustrator 21.0.0, SVG Export Plug-In . SVG Version: 6.00 Build 0)  -->
<svg version="1.1" id="Réteg_1" xmlns="http://www.w3.org/2000/svg" xmlns:xlink="http://www.w3.org/1999/xlink" x="0px" y="0px"
	 viewBox="0 0 128 128" style="enable-background:new 0 0 128 128;" xml:space="preserve">
<style type="text/css">
	.st0{fill:#B08D57;}
</style>
<g>
	<path class="st0" d="M97.2,62.2l-46.9-32c-0.7-0.4-1.5-0.5-2.2-0.1c-0.7,0.4-1.1,1.1-1.1,1.9v64c0,0.8,0.4,1.5,1.1,1.9
		c0.3,0.2,0.7,0.2,1,0.2c0.4,0,0.8-0.1,1.2-0.4l46.9-32c0.6-0.4,0.9-1.1,0.9-1.8S97.8,62.6,97.2,62.2z M51.2,92V36l41,28L51.2,92z"
		/>
	<path class="st0" d="M64,0C28.7,0,0,28.7,0,64s28.7,64,64,64s64-28.7,64-64S99.3,0,64,0z M64,123.7C31.1,123.7,4.3,96.9,4.3,64
		S31.1,4.3,64,4.3s59.7,26.8,59.7,59.7S96.9,123.7,64,123.7z"/>
</g>
</svg>
