<?xml version="1.0" encoding="utf-8"?>
<!-- Generator: Adobe Illustrator 21.0.0, SVG Export Plug-In . SVG Version: 6.00 Build 0)  -->
<svg version="1.1" id="Capa_1" xmlns="http://www.w3.org/2000/svg" xmlns:xlink="http://www.w3.org/1999/xlink" x="0px" y="0px"
	 viewBox="0 0 455.7 455.7" style="enable-background:new 0 0 455.7 455.7;" xml:space="preserve">
<style type="text/css">
	.st0{fill:#B08D57;}
</style>
<path class="st0" d="M334.3,294.1c22.4-30.6,36-68,36-108.9C370.3,83,287.3,0,185.1,0S0,83,0,185.1s83,185.1,185.1,185.1
	c40.9,0,78.3-13.5,108.9-36l121.4,121.4l40.2-40.2L334.3,294.1L334.3,294.1z M185.1,313.3C114.3,313.3,57,256,57,185.1
	S114.3,57,185.1,57s128.2,57.3,128.2,128.2S256,313.3,185.1,313.3L185.1,313.3z"/>
</svg>
