<?xml version="1.0" encoding="utf-8"?>
<!-- Generator: Adobe Illustrator 21.0.0, SVG Export Plug-In . SVG Version: 6.00 Build 0)  -->
<svg version="1.1" id="Réteg_1" xmlns="http://www.w3.org/2000/svg" xmlns:xlink="http://www.w3.org/1999/xlink" x="0px" y="0px"
	 viewBox="0 0 40.9 38.9" style="enable-background:new 0 0 40.9 38.9;" xml:space="preserve">
<style type="text/css">
	.st0{fill:#FFFFFF;}
</style>
<g>
	<g>
		<path class="st0" d="M20.5,0.4C9.9,0.4,1.4,8.9,1.4,19.5s8.5,19.1,19.1,19.1S39.5,30,39.5,19.4S31,0.4,20.5,0.4z M15.4,29.8
			c3-10.8,0,0,3-10.8c-1.9-0.8-3.2-2.6-3.2-4.7c0-2.8,2.3-5.1,5.1-5.1s5.1,2.3,5.1,5.1c0,1.9-1.1,3.6-2.6,4.4
			c2.9,11.1,2.9,11.1,2.9,11.1S15.8,29.8,15.4,29.8z"/>
		<path class="st0" d="M20.5,38.9C9.7,38.9,1,30.2,1,19.5S9.7,0,20.5,0s19.5,8.7,19.5,19.5S31.2,38.9,20.5,38.9z M20.5,0.8
			C10.1,0.8,1.8,9.1,1.8,19.5s8.4,18.7,18.7,18.7c10.3,0,18.7-8.4,18.7-18.7S30.8,0.8,20.5,0.8z M26.2,30.1H14.9l3-11
			c-1.9-0.9-3.1-2.8-3.1-4.9c0-3,2.4-5.4,5.4-5.4s5.4,2.4,5.4,5.4c0,1.9-1,3.6-2.6,4.6L26.2,30.1z M15.9,29.4h9.2l-2.8-10.9l0.3-0.2
			c1.5-0.8,2.4-2.4,2.4-4.1c0-2.6-2.1-4.7-4.7-4.7s-4.7,2.1-4.7,4.7c0,1.9,1.2,3.6,2.9,4.3l0.3,0.1L15.9,29.4z"/>
	</g>
</g>
</svg>
