<?xml version="1.0" encoding="utf-8"?>
<!-- Generator: Adobe Illustrator 21.0.0, SVG Export Plug-In . SVG Version: 6.00 Build 0)  -->
<svg version="1.1" id="Réteg_1" xmlns="http://www.w3.org/2000/svg" xmlns:xlink="http://www.w3.org/1999/xlink" x="0px" y="0px"
	 viewBox="0 0 518 205.4" style="enable-background:new 0 0 518 205.4;" xml:space="preserve">
<style type="text/css">
	.st0{fill:#FFFFFF;}
</style>
<g>
	<g>
		<path class="st0" d="M41.8,130c0,7.3-2.3,13.1-7,17.3c-4.1,3.7-9,5.6-14.7,5.6H0v-1.4h4.2V92.7H0v-1.4h20.1
			c5.6,0,10.4,1.9,14.3,5.7c4.9,4.2,7.4,10.1,7.4,17.5V130z M19.4,151.5c2.5,0.2,5-0.6,7.5-2.4c5-3.5,7.5-9.9,7.5-19.4v-15
			c0-9.8-2.5-16.4-7.5-19.8c-2.5-1.5-5-2.2-7.5-2.2h-7.9v58.9H19.4z"/>
		<path class="st0" d="M89.4,90.6c6.4,0,11.2,2.1,14.4,6.2c2.9,3.7,4.4,8.6,4.4,14.9v21.9c0,6.2-1.5,11-4.4,14.5
			c-3.2,3.8-8,5.7-14.4,5.7c-6.4,0-11.2-1.9-14.4-5.7c-2.9-3.5-4.4-8.3-4.4-14.5v-21.9c0-6.3,1.5-11.2,4.4-14.9
			C78.3,92.6,83.1,90.6,89.4,90.6z M100.1,105.6c0-4-0.7-7.3-2.2-9.6c-1.8-2.9-4.7-4.3-8.5-4.3c-3.8,0-6.6,1.4-8.5,4.3
			c-1.5,2.4-2.2,5.6-2.2,9.6v34c0,8.7,3.6,13,10.7,13c7.2,0,10.7-4.3,10.7-13V105.6z"/>
		<path class="st0" d="M155.8,90.6c6.4,0,11.2,2.1,14.4,6.2c2.9,3.7,4.4,8.6,4.4,14.9v21.9c0,6.2-1.5,11-4.4,14.5
			c-3.2,3.8-8,5.7-14.4,5.7c-6.4,0-11.2-1.9-14.4-5.7c-2.9-3.5-4.4-8.3-4.4-14.5v-21.9c0-6.3,1.5-11.2,4.4-14.9
			C144.7,92.6,149.5,90.6,155.8,90.6z M166.6,105.6c0-4-0.7-7.3-2.2-9.6c-1.8-2.9-4.7-4.3-8.5-4.3c-3.8,0-6.6,1.4-8.5,4.3
			c-1.5,2.4-2.2,5.6-2.2,9.6v34c0,8.7,3.6,13,10.7,13c7.2,0,10.7-4.3,10.7-13V105.6z"/>
		<path class="st0" d="M219.1,152.9h-15.6v-1.4h4.2V92.6h-4.2v-1.4h22.1c10.6,0,15.9,4.2,15.9,12.5v7.2c0,4.1-1,7.1-3,9
			c-1.7,1.6-4.4,2.7-8.1,3.1c3.6,1,6.2,2.7,8,5.1c1.6,2.2,2.4,4.9,2.4,8v11.7c0,2.9,0.8,4.3,2.5,4.3c1.7,0,2.6-1.4,2.6-4.1v-0.6h1.3
			v0.6c0,2.2-0.5,3.8-1.4,4.8c-0.9,0.8-2.3,1.3-4.3,1.3c-2.7,0-4.5-0.7-5.6-2.2c-1-1.4-1.6-3.8-1.6-7.3v-4.3
			c0-5.8-1.4-10.1-4.1-12.9c-2.5-2.6-6.1-3.9-10.8-3.9H215v28.2h4.1V152.9z M215,92.6v29.3h7.5c4.5,0,7.6-1,9.3-3
			c1.7-2,2.6-5.8,2.6-11.4V107c0-9.6-3.9-14.3-11.6-14.3H215z"/>
		<path class="st0" d="M283.4,123.1c-6.8-4.3-10.2-9.7-10.2-16.3c0-4.6,1.7-8.4,5-11.4c3.6-3.2,8.3-4.8,14.2-4.8
			c1.8,0,3.5,0.2,5,0.7h7.8l1.9,20.4h-2.4c-0.1-2.9-0.8-6.1-2.1-9.5c-2.4-6.8-6.3-10.2-11.7-10.2c-4.1,0-7.2,1.2-9.1,3.6
			c-1.4,1.8-2.1,4.1-2.1,6.9c0,2.5,0.9,5.1,2.7,7.7c1.5,2.3,3.3,4.1,5.3,5.3l4.9,3.1h0.2l4,2.6c6.8,3.5,10.2,8.9,10.2,16.3
			c0,4.6-1.7,8.4-5,11.4c-3.6,3.2-8.3,4.8-14.2,4.8c-1.8,0-3.5-0.2-5-0.7h-7.8l-1.9-20.4h2.4c0.1,2.9,0.8,6,2.1,9.4
			c2.4,6.8,6.3,10.2,11.7,10.2c4.1,0,7.2-1.2,9.1-3.6c1.4-1.8,2.1-4.1,2.1-6.9c0-2.5-0.8-5-2.5-7.5c-1.7-2.5-3.5-4.3-5.5-5.5
			L283.4,123.1z"/>
		<path class="st0" d="M350.8,152.9v-1.4h4.2V92.7h-6.9c-4.2,1.9-7,5.7-8.6,11.2c-0.8,2.8-1.2,5.4-1.1,7.8H336l2-20.4h41.4l2,20.4
			h-2.4c0-2.4-0.3-5-1.1-7.8c-1.5-5.6-4.4-9.3-8.6-11.2h-6.9v58.9h4.2v1.4H350.8z"/>
		<path class="st0" d="M427.7,91.3l15.9,60.3h4.2v1.4h-15.6v-1.4h4.1l-4.9-18.4h-19.7l-4.8,18.4h5.1v1.4H401v-1.4h4.7l15.6-60.3
			H427.7z M412.2,131.7h18.9l-9.5-36L412.2,131.7z"/>
		<path class="st0" d="M490.1,152.9h-15.6v-1.4h4.2V92.6h-4.2v-1.4h22.1c10.6,0,15.9,4.2,15.9,12.5v7.2c0,4.1-1,7.1-3,9
			c-1.7,1.6-4.4,2.7-8.1,3.1c3.6,1,6.2,2.7,8,5.1c1.6,2.2,2.4,4.9,2.4,8v11.7c0,2.9,0.8,4.3,2.5,4.3c1.7,0,2.6-1.4,2.6-4.1v-0.6h1.3
			v0.6c0,2.2-0.5,3.8-1.4,4.8c-0.9,0.8-2.3,1.3-4.3,1.3c-2.7,0-4.5-0.7-5.6-2.2c-1-1.4-1.6-3.8-1.6-7.3v-4.3
			c0-5.8-1.4-10.1-4.1-12.9c-2.5-2.6-6.1-3.9-10.8-3.9h-4.1v28.2h4.1V152.9z M486.1,92.6v29.3h7.5c4.5,0,7.6-1,9.3-3
			c1.7-2,2.6-5.8,2.6-11.4V107c0-9.6-3.9-14.3-11.6-14.3H486.1z"/>
	</g>
	<g>
		<path class="st0" d="M107.9,177.7v24.8h15.2v2.6h-18v-27.4H107.9z"/>
		<path class="st0" d="M179.4,177.7v16.7c0,7.4-4.9,11-10.8,11c-6,0-11-3.6-11-11v-16.7h2.7v16.7c0,5.2,3.6,8.4,8.2,8.4
			c4.1,0,8.1-2.7,8.1-8.4v-16.7H179.4z"/>
		<path class="st0" d="M234.5,177.7h3v0.1l-9.3,13.3l9.9,13.9v0.1h-3.2l-4.5-6.3l-4-6l-4.3,6.3l-4.3,6.1h-3.1V205l9.9-13.9
			l-9.3-13.3v-0.1h3.1l4.1,5.9l3.9,5.8l4-6L234.5,177.7z"/>
		<path class="st0" d="M295.2,177.7v16.7c0,7.4-4.9,11-10.8,11c-5.9,0-11-3.6-11-11v-16.7h2.7v16.7c0,5.2,3.6,8.4,8.2,8.4
			c4.1,0,8.1-2.7,8.1-8.4v-16.7H295.2z"/>
		<path class="st0" d="M356.2,205.1h-3.6l-9.1-10.1h-7.1v10.1h-2.7v-27.4c4.1,0,8.2,0,12.3,0c6.1,0,9,4.1,9.1,8.7
			c0,4.3-2.5,8.1-8.3,8.4L356.2,205.1z M336.5,180.3v12.1h9.4c4.4,0,6.5-2.6,6.5-6c0-3.4-2.1-6.1-6.3-6.1H336.5z"/>
		<path class="st0" d="M400.8,191.4l8.8-13.7h3.2v0.1l-10.7,16.3v11h-2.7v-11l-10.5-16.3v-0.1h3.2L400.8,191.4z"/>
	</g>
	<g>
		<path class="st0" d="M379.7,73.9c0,0-3.6-1.5-9.8-4.1c-3.1-1.4-7-2.5-11.5-4.1c-4.4-1.6-9.6-3-15.2-4.5
			c-5.6-1.6-11.8-2.7-18.2-4.2c-3.3-0.6-6.6-1.2-10.1-1.8c-3.4-0.6-7-1.2-10.6-1.5c-3.6-0.4-7.3-0.9-11-1.3
			c-3.7-0.3-7.5-0.6-11.3-0.8c-1.9-0.1-3.8-0.3-5.7-0.4l-1.5,0v-0.1L249.4,48V3.1L274.9,0h-31.7v51.2l-1.5,0
			c-1.9,0.1-3.8,0.3-5.7,0.4c-3.8,0.3-7.6,0.5-11.3,0.8c-3.7,0.4-7.4,0.9-11,1.3c-3.6,0.4-7.1,0.9-10.6,1.5
			c-3.4,0.6-6.8,1.2-10.1,1.8c-6.5,1.5-12.7,2.6-18.3,4.2c-5.6,1.5-10.7,2.9-15.2,4.5c-4.4,1.6-8.4,2.7-11.5,4.1
			c-6.2,2.6-9.8,4.1-9.8,4.1c-0.2,0.1-0.3,0.3-0.2,0.5c0.1,0.2,0.3,0.3,0.5,0.3c0,0,3.7-1.1,10.1-3.1c3.2-1.1,7.2-2,11.6-3.2
			c4.5-1.3,9.7-2.2,15.2-3.5c5.6-1.3,11.7-2.2,18.2-3.4c3.3-0.4,6.6-0.9,10-1.3c3.4-0.4,6.9-1,10.5-1.2c3.6-0.3,7.2-0.7,10.8-1
			c3.7-0.2,7.4-0.4,11.1-0.6c1.9-0.1,3.8-0.2,5.6-0.3l5.7-0.1c3.8-0.1,7.6-0.1,11.4-0.2c3.8,0.1,7.6,0.1,11.4,0.2l5.7,0.1
			c1.9,0.1,3.8,0.2,5.6,0.3c3.7,0.2,7.4,0.4,11.1,0.6c3.7,0.3,7.3,0.7,10.9,1c3.6,0.3,7,0.8,10.5,1.2c3.4,0.4,6.8,0.9,10,1.3
			c6.4,1.2,12.6,2,18.2,3.4c5.6,1.3,10.8,2.2,15.2,3.5c4.5,1.2,8.5,2.1,11.7,3.2c6.4,2,10.1,3.1,10.1,3.1l0,0c0.2,0.1,0.4,0,0.5-0.2
			C380,74.2,379.9,74,379.7,73.9z"/>
		<circle class="st0" cx="253.8" cy="27.1" r="2.3"/>
	</g>
</g>
</svg>
